<svg xmlns="http://www.w3.org/2000/svg" viewBox="0 0 500 500"><g id="freepik--background-simple--inject-112"><path d="M450.83,282.7c-13.56,35.38-41.28,73.68-80.28,85-58.93,17.14-66,63.41-171.53,59.12a218.19,218.19,0,0,1-45.64-6.52,181.47,181.47,0,0,1-21.46-6.95C70.25,389,38.09,335.5,35.42,279.48,31.89,205.8,84.67,170.68,119,150.12S194.63,49.88,298.43,53.3A211.58,211.58,0,0,1,345.34,60c34.93,9.21,70.43,29.57,91.07,59.34q2.31,3.36,4.44,6.86C468.46,171.8,469.33,234.45,450.83,282.7Z" style="fill:#3B82F6"></path><path d="M450.83,282.7c-13.56,35.38-41.28,73.68-80.28,85-58.93,17.14-66,63.41-171.53,59.12a218.19,218.19,0,0,1-45.64-6.52,181.47,181.47,0,0,1-21.46-6.95C70.25,389,38.09,335.5,35.42,279.48,31.89,205.8,84.67,170.68,119,150.12S194.63,49.88,298.43,53.3A211.58,211.58,0,0,1,345.34,60c34.93,9.21,70.43,29.57,91.07,59.34q2.31,3.36,4.44,6.86C468.46,171.8,469.33,234.45,450.83,282.7Z" style="fill:#fff;opacity:0.8"></path></g><g id="freepik--magnifying-glass--inject-112"><path d="M163.7,426.39l-12.42-10.87A3.14,3.14,0,0,0,148,415l-3.57-3.12a1.33,1.33,0,0,0-.63-.31,15.54,15.54,0,1,0-1.58,1.61,1.35,1.35,0,0,0,.43.73l3.56,3.12a3.17,3.17,0,0,0,1,3.24l12.42,10.86a3.16,3.16,0,1,0,4.17-4.75ZM132,415.26a13.55,13.55,0,1,1,13.54-13.54A13.57,13.57,0,0,1,132,415.26Z" style="fill:#263238"></path></g><g id="freepik--people-icons--inject-112"><path d="M244.77,48.46c0,2.62-1.65,4.74-3.69,4.74s-3.68-2.12-3.68-4.74,1.65-4.73,3.68-4.73S244.77,45.85,244.77,48.46Z" style="fill:none;stroke:#263238;stroke-linecap:round;stroke-linejoin:round"></path><path d="M248.55,64H233.19l.86-6.66a3.52,3.52,0,0,1,3.48-3.06h6.69a3.52,3.52,0,0,1,3.48,3.06Z" style="fill:none;stroke:#263238;stroke-linecap:round;stroke-linejoin:round"></path><path d="M262,48.46c0,2.62-1.65,4.74-3.68,4.74s-3.69-2.12-3.69-4.74,1.65-4.73,3.69-4.73S262,45.85,262,48.46Z" style="fill:none;stroke:#263238;stroke-linecap:round;stroke-linejoin:round"></path><path d="M265.8,64H250.44l.85-6.66a3.52,3.52,0,0,1,3.48-3.06h6.69a3.52,3.52,0,0,1,3.48,3.06Z" style="fill:none;stroke:#263238;stroke-linecap:round;stroke-linejoin:round"></path><path d="M279.25,48.46c0,2.62-1.65,4.74-3.68,4.74s-3.68-2.12-3.68-4.74,1.64-4.73,3.68-4.73S279.25,45.85,279.25,48.46Z" style="fill:#3B82F6;stroke:#263238;stroke-linecap:round;stroke-linejoin:round"></path><path d="M283,64H267.68l.86-6.66A3.5,3.5,0,0,1,272,54.23h6.68a3.51,3.51,0,0,1,3.48,3.06Z" style="fill:#3B82F6;stroke:#263238;stroke-linecap:round;stroke-linejoin:round"></path><path d="M296.49,48.46c0,2.62-1.65,4.74-3.68,4.74s-3.68-2.12-3.68-4.74,1.65-4.73,3.68-4.73S296.49,45.85,296.49,48.46Z" style="fill:none;stroke:#263238;stroke-linecap:round;stroke-linejoin:round"></path><path d="M300.28,64H284.92l.86-6.66a3.5,3.5,0,0,1,3.48-3.06h6.68a3.5,3.5,0,0,1,3.48,3.06Z" style="fill:none;stroke:#263238;stroke-linecap:round;stroke-linejoin:round"></path><path d="M313.74,48.46c0,2.62-1.65,4.74-3.69,4.74s-3.68-2.12-3.68-4.74,1.65-4.73,3.68-4.73S313.74,45.85,313.74,48.46Z" style="fill:none;stroke:#263238;stroke-linecap:round;stroke-linejoin:round"></path><path d="M317.52,64H302.16l.86-6.66a3.52,3.52,0,0,1,3.48-3.06h6.68a3.52,3.52,0,0,1,3.49,3.06Z" style="fill:none;stroke:#263238;stroke-linecap:round;stroke-linejoin:round"></path><path d="M331,48.46c0,2.62-1.65,4.74-3.68,4.74s-3.69-2.12-3.69-4.74,1.65-4.73,3.69-4.73S331,45.85,331,48.46Z" style="fill:none;stroke:#263238;stroke-linecap:round;stroke-linejoin:round"></path><path d="M334.77,64H319.4l.86-6.66a3.52,3.52,0,0,1,3.48-3.06h6.69a3.52,3.52,0,0,1,3.48,3.06Z" style="fill:none;stroke:#263238;stroke-linecap:round;stroke-linejoin:round"></path></g><g id="freepik--Chart--inject-112"><path d="M121.5,75.15c0,.26,0,.52,0,.78a19.56,19.56,0,1,1,0-.78Z" style="fill:#3B82F6;stroke:#263238;stroke-linecap:round;stroke-linejoin:round"></path><path d="M101.83,55.48V76.27h19.62c0-.11,0-.22,0-.34s0-.52,0-.78A19.67,19.67,0,0,0,101.83,55.48Z" style="fill:#fff;stroke:#263238;stroke-linecap:round;stroke-linejoin:round"></path><path d="M147.82,51c0,2.61-1.65,4.73-3.68,4.73s-3.68-2.12-3.68-4.73,1.64-4.74,3.68-4.74S147.82,48.34,147.82,51Z" style="fill:none;stroke:#263238;stroke-linecap:round;stroke-linejoin:round"></path><path d="M151.61,66.45H136.25l.86-6.66a3.5,3.5,0,0,1,3.48-3.07h6.68a3.51,3.51,0,0,1,3.48,3.07Z" style="fill:none;stroke:#263238;stroke-linecap:round;stroke-linejoin:round"></path><path d="M74,89.2c0,2.62-1.65,4.74-3.68,4.74s-3.68-2.12-3.68-4.74,1.64-4.73,3.68-4.73S74,86.59,74,89.2Z" style="fill:none;stroke:#263238;stroke-linecap:round;stroke-linejoin:round"></path><path d="M77.78,104.69H62.42L63.28,98A3.5,3.5,0,0,1,66.76,95h6.68A3.51,3.51,0,0,1,76.92,98Z" style="fill:none;stroke:#263238;stroke-linecap:round;stroke-linejoin:round"></path><polyline points="117.42 63.05 122.19 58.28 135.37 58.28" style="fill:none;stroke:#263238;stroke-linecap:round;stroke-linejoin:round"></polyline><polyline points="99.48 95.02 99.48 103.16 81.81 103.16" style="fill:none;stroke:#263238;stroke-linecap:round;stroke-linejoin:round"></polyline></g><g id="freepik--Plant--inject-112"><path d="M463.62,281.25s.82-8.19-2.46-11.88-8.19.82-7,5.74S463.62,281.25,463.62,281.25Z" style="fill:#3B82F6"></path><path d="M454.21,317.77s1.27-12.78-3.83-18.52-12.78,1.27-10.86,8.94S454.21,317.77,454.21,317.77Z" style="fill:#3B82F6"></path><path d="M451.44,338.46s-1.4-12.76-7.59-17.32-12.23,3.91-8.77,11S451.44,338.46,451.44,338.46Z" style="fill:#3B82F6"></path><path d="M464.44,349.15c-7.55,1.45-14.31,12.36-14.31,12.36s11.31,6.25,17.49,1.33S472,347.69,464.44,349.15Z" style="fill:#3B82F6"></path><path d="M466.94,368.37c-10.8,2.08-20.47,17.69-20.47,17.69s16.17,8.94,25,1.91S477.74,366.29,466.94,368.37Z" style="fill:#3B82F6"></path><path d="M446.24,384.47a9.6,9.6,0,0,0,.64-1.08,11.55,11.55,0,0,0,.49-9.05c.57-4.74,1.08-8.58,1.45-10.31.16-.74.32-1.52.47-2.34l.54,0s-.07-.61-.24-1.61c.87-4.84,1.74-10.92,2.78-18.19.14-1,.28-2,.43-3,2.94,1.39,11.39,4.81,16.43.8,6.18-4.92,4.37-15.15-3.18-13.7-5.46,1.05-10.5,7.05-12.88,10.29.67-4.62,1.4-9.58,2.22-14.77.14-.88.3-1.79.47-2.74,2.9,2.14,10,6.63,15.5,3.89,7.07-3.52,7.43-13.91-.26-14.06-5.54-.1-11.69,4.68-14.7,7.36,1.11-5.47,2.64-11.79,4.28-18,1.76,1.32,6.47,4.4,10.08,2.6,4.54-2.26,4.77-8.93-.17-9-3.59-.07-7.57,3.05-9.48,4.76,1.32-5,2.68-9.83,3.91-14.12,2,1.44,6.28,3.92,9.61,2.26,4.53-2.26,4.76-8.92-.17-9-3.13-.06-6.57,2.32-8.66,4.06,1.8-6.22,3.21-10.81,3.58-12,1.83-1.22,7.37-5,8.29-7.29a5.35,5.35,0,1,0-9.91-4c-.89,2.18.29,8.33.81,10.72l-.33-.1c-.05.15-1.89,6.09-4.26,14.34l-.15.15.09.07c-1.28,4.45-2.71,9.55-4.09,14.77.08-2.48-.07-7.79-2.54-10.55-3.27-3.69-8.19.81-7,5.73,1.1,4.4,7.76,5.84,9.16,6.1-1.84,7-3.56,14.16-4.7,20.1l-.25.26.18.15c-.23,1.19-.43,2.34-.6,3.43-1.17,7.39-2.16,14.31-3,20.42-.82,5.73-1.53,10.72-2.22,14.94-1-4.09-3-9.59-6.64-12.27a5.53,5.53,0,0,0-4.78-1.11c.3-4.85-3.8-9.06-8-6-5.09,3.74-6.25,14.23-6.25,14.23a23.08,23.08,0,0,0,9.31-1.52,9.79,9.79,0,0,0,.95,5.32,5,5,0,0,0-2.69,1,11.35,11.35,0,0,0-3.07,3.74,8.38,8.38,0,0,0-3.06,2c-.36-2.42-.74-5-1.15-7.92-.72-5-1.53-10.71-2.49-16.79-.14-.89-.3-1.84-.49-2.82l.15-.12-.21-.21c-.94-4.89-2.35-10.75-3.86-16.52,1.14-.21,6.62-1.4,7.53-5,1-4-3-7.74-5.73-4.71-2,2.28-2.15,6.64-2.08,8.67-1.14-4.28-2.31-8.48-3.36-12.14l.07-.06-.12-.12c-1.95-6.77-3.47-11.66-3.5-11.78l-.27.08c.42-2,1.39-7,.66-8.81a4.39,4.39,0,0,0-8.14,3.3c.75,1.87,5.3,5,6.81,6,.3,1,1.46,4.75,2.94,9.87-1.72-1.43-4.54-3.39-7.12-3.34-4,.08-3.86,5.56-.13,7.42,2.73,1.36,6.22-.68,7.89-1.86,1,3.52,2.13,7.52,3.21,11.6-1.57-1.4-4.84-4-7.79-3.91-4,.08-3.86,5.55-.14,7.41,3,1.48,6.84-1.05,8.29-2.14,1.34,5.13,2.61,10.33,3.51,14.82-2.47-2.2-7.53-6.13-12.08-6-6.31.12-6,8.66-.21,11.56,4.51,2.25,10.35-1.45,12.74-3.21.14.78.27,1.54.38,2.25.68,4.28,1.28,8.35,1.83,12.15-1.95-2.67-6.1-7.6-10.59-8.46-6.2-1.19-7.69,7.22-2.61,11.26,4.15,3.29,11.09.49,13.51-.66.12.84.24,1.68.35,2.49.46,3.23.88,6.16,1.28,8.81a12.16,12.16,0,0,0-2,3.91c-2.21-2.67-5.61-6-9.25-6.74-6.21-1.19-7.69,7.22-2.61,11.26,3.22,2.57,8.14,1.43,11.31.26a14,14,0,0,0,1.42,5.44,12.22,12.22,0,0,0,4,4.58c.79,6.74,1.67,15.4,2.25,21.3h-9.51v40.19H456.7V403.13H444.34C444.81,398.28,445.51,391.27,446.24,384.47ZM448,361.68c-.14.73-.28,1.42-.42,2.08-.33,1.53-.76,4.62-1.24,8.5A6.85,6.85,0,0,0,441,369a27.21,27.21,0,0,0-2.74-4.36,8,8,0,0,0,.26-4.75A26,26,0,0,0,448,361.68ZM427.8,382.59q.68.41,1.38.75c-.37,1.31-.66,2.55-.89,3.63C428.13,385.46,428,384,427.8,382.59Zm.91,8.25c2.94,0,11.25-.32,15.91-4.52h.12c-.66,6.22-1.27,12.41-1.7,16.81H430C429.62,399.68,429.18,395.27,428.71,390.84Z" style="fill:#3B82F6"></path><path d="M420.94,299.44c1-4-3-7.75-5.73-4.71s-2,9.76-2,9.76S419.93,303.48,420.94,299.44Z" style="fill:#3B82F6"></path><path d="M420.93,334.5s10.5-1.57,12.07-7.87-4.72-12.07-8.92-7.35S420.93,334.5,420.93,334.5Z" style="fill:#3B82F6"></path><path d="M410.46,376.09c-8.87-1.71-11,10.33-3.73,16.11s20.56-1.57,20.56-1.57S419.34,377.8,410.46,376.09Z" style="fill:#3B82F6"></path></g><g id="freepik--Device--inject-112"><rect x="120.69" y="114.03" width="323.58" height="259.19" rx="9.5" style="fill:#263238;stroke:#263238;stroke-linecap:round;stroke-linejoin:round"></rect><rect x="225.02" y="188.2" width="96.99" height="255.12" style="fill:#b0b0b0;stroke:#263238;stroke-linecap:round;stroke-linejoin:round"></rect><rect x="225.02" y="184.94" width="96.99" height="199.69" style="fill:#263238;stroke:#263238;stroke-linecap:round;stroke-linejoin:round"></rect><rect x="198.12" y="433.54" width="150.79" height="9.78" style="fill:#b0b0b0;stroke:#263238;stroke-linecap:round;stroke-linejoin:round"></rect><rect x="110.91" y="114.03" width="325.21" height="259.19" rx="9.5" style="fill:#b0b0b0;stroke:#263238;stroke-linecap:round;stroke-linejoin:round"></rect><rect x="121.91" y="122.8" width="303.22" height="241.67" style="fill:#fff;stroke:#263238;stroke-miterlimit:10"></rect><rect x="121.91" y="352.85" width="303.22" height="11.61" style="fill:#707070;stroke:#263238;stroke-linecap:round;stroke-linejoin:round"></rect><rect x="121.91" y="122.8" width="303.22" height="16.88" style="fill:#3B82F6;stroke:#263238;stroke-linecap:round;stroke-linejoin:round"></rect></g><g id="freepik--Floor--inject-112"><line x1="381.24" y1="443.32" x2="479.08" y2="443.32" style="fill:none;stroke:#263238;stroke-linecap:round;stroke-linejoin:round"></line><line x1="31.79" y1="443.32" x2="377.34" y2="443.32" style="fill:none;stroke:#263238;stroke-linecap:round;stroke-linejoin:round"></line></g><g id="freepik--Character--inject-112"><path d="M88.29,443.32H51.88s-.13-1.21-.23-3.06c-.26-4.49-.37-12.69,1.91-15.85,3.21-4.46,18.13,3.48,18.13,3.48s6.81,6.2,10.61,7.83,4.89.53,5.44,3.26c.09.46.17.89.24,1.28A21.58,21.58,0,0,1,88.29,443.32Z" style="fill:#fff;stroke:#263238;stroke-miterlimit:10"></path><path d="M88.29,443.32H51.88s-.13-1.21-.23-3.06H88A21.58,21.58,0,0,1,88.29,443.32Z" style="fill:#fff;stroke:#263238;stroke-miterlimit:10"></path><path d="M55.29,292.88l2.21,57s-7,15.83-5.06,28.17-.63,52.53-.63,52.53.63,1.9,8.22,1.9,8.86-5.38,8.86-5.38,6.33-72.15,7-77.53,7.91-55.06,7.91-55.06Z" style="fill:#263238;stroke:#263238;stroke-miterlimit:10"></path><path d="M98.1,443.32H61.69s-.13-1.21-.23-3.06c-.26-4.49-.37-12.69,1.91-15.85,3.21-4.46,18.13,3.48,18.13,3.48s6.81,6.2,10.61,7.83,4.89.53,5.44,3.26c.09.46.17.89.24,1.28A21.58,21.58,0,0,1,98.1,443.32Z" style="fill:#fff;stroke:#263238;stroke-miterlimit:10"></path><path d="M98.1,443.32H61.69s-.13-1.21-.23-3.06H97.79A21.58,21.58,0,0,1,98.1,443.32Z" style="fill:#fff;stroke:#263238;stroke-miterlimit:10"></path><path d="M86.22,291.08s3.27,22.37,2.18,32.7S85.68,370,83.51,384.64s-3.75,37.6-3.75,37.6l1.74,1.3v4.35s-7.39,1.74-10.43,2.17c-2.06.3-5.94.7-8.25.93a1.36,1.36,0,0,1-1.46-1.64l1-4.94,1.14-5.9s-6.08-37.68-5-44.2,4.89-21.73,4.89-23.36S58,321.06,56.89,316.17s-5.44-17.93-5.44-25S86.22,291.08,86.22,291.08Z" style="fill:#263238;stroke:#263238;stroke-miterlimit:10"></path><path d="M78.62,217s7.88,11.14,10.32,13.32S99.27,236.84,99,240.37s-1.09,7.61-5.44,9.51S80,245.53,80,245.53Z" style="fill:#fff;stroke:#263238;stroke-miterlimit:10"></path><path d="M90.58,231.13s-2.72,7.07-3,9.78-.55,7.34,1.63,9.24a13.55,13.55,0,0,0,7.33,3c1.63,0,2.18-10.87,2.45-12.77s1.9-6,.27-7.88S92.75,230.32,90.58,231.13Z" style="fill:#fff;stroke:#263238;stroke-miterlimit:10"></path><path d="M96.34,206.51c-1.91.8-4-.78-5.14-2.5s-2-3.81-3.83-4.81c-.57-.32-1.25-.55-1.53-1.14-.48-1,.69-2.1,1.79-2.11s4.33,2.6,5.38,3c3.6,1.2,5.26-2.85,9-2.62a2,2,0,0,1,1.26.39c.39.36.63,4.19.69,4.72.67,6.6-.14,10.15-.12,22.68,0,4.82.25,13,.21,20.69,0,3.13-.35,4.87-4.91,7.38s-8.77-5.16-8.93-7.27c-.24-3.25,1.19-7.09,1.88-10.22C93.65,227.83,96.22,213.51,96.34,206.51Z" style="fill:#fff;stroke:#263238;stroke-miterlimit:10"></path><path d="M94.48,195.46s-.19-.3-.5-.7c-.69-.91-2-2.41-3-2.36-1.45.07-5.9,3.13-4.86,4.45s4.75-1.58,4.75-1.58l2.39,4.39,3.66-.52Z" style="fill:#fff;stroke:#263238;stroke-miterlimit:10"></path><path d="M95.08,195s-2.2,1-2,4.67,1.9,4.15,2.62,3.74a33.08,33.08,0,0,1,5.09-1.08,1.8,1.8,0,0,0,1.47-1.43c.16-.8.46-2.11,1-4.22C104.61,192,95.08,195,95.08,195Z" style="fill:#fff;stroke:#263238;stroke-miterlimit:10"></path><path d="M96.66,194.79a10.47,10.47,0,0,0-.09,8.06" style="fill:none;stroke:#263238;stroke-miterlimit:10"></path><path d="M100.05,194.19s-1.73,5.06-.41,8.21" style="fill:none;stroke:#263238;stroke-miterlimit:10"></path><path d="M97.64,204.78s.12.57,1.76,1.53,3.44-.35,3.77-.42" style="fill:none;stroke:#263238;stroke-miterlimit:10"></path><path d="M64.16,188.47l-.72,13.38,14.38,9,4.07-17.88-11.5-25s-3.2-1.91-5.76,3.58.21,10.95.21,10.95Z" style="fill:#fff;stroke:#263238;stroke-miterlimit:10"></path><path d="M88.69,165.47l4.18,10.85-2.82,1.93s2.63,11.88,1,14.27S79.5,194.34,78,194s-8.26-20.74-8.26-20.74-.41-3.16-2.85-.4,2.37,8.31,2.37,8.31l-5.11,7.3S49.37,176.34,50,169.39s7.95-15.93,23.52-18.54S95,160,93.47,162.67A6.13,6.13,0,0,1,88.69,165.47Z" style="fill:#263238;stroke:#263238;stroke-miterlimit:10"></path><path d="M88.35,182.69c-1.8.47-1.7,4.44-1.7,4.44a3.7,3.7,0,0,0,2.61-.16,10.24,10.24,0,0,0,2.06-1.3c-.15-1.27-.35-2.54-.55-3.67C90,182.24,89.1,182.49,88.35,182.69Z" style="fill:#fff;stroke:#263238;stroke-miterlimit:10"></path><path d="M77.16,169.62c-.49,1.89-5.36,3.73-5.36,3.73l1.25,2.79s4,8.93,5.69,10.51,4.07.86,3.42.15.58-4,3.4-5.87a19,19,0,0,1,4.58-2.25c0-.27-.09-.43-.09-.43l2.82-1.93-4.18-10.85-11.14-1.72A29.94,29.94,0,0,1,77.16,169.62Z" style="fill:#fff;stroke:#263238;stroke-miterlimit:10"></path><path d="M87,172.14c.17,1.08,0,2-.46,2.08s-.88-.77-1-1.85,0-2,.46-2.08S86.82,171.05,87,172.14Z" style="fill:#263238"></path><path d="M86.93,167.81s-1.64-1.52-2.93-.12a2.06,2.06,0,0,0-.47,2.57" style="fill:none;stroke:#263238;stroke-linecap:round;stroke-linejoin:round;stroke-width:0.75px"></path><path d="M64.6,197.68S53.88,207.94,52,213.54s-4.34,54.36-3.35,62.57,2.07,18.26,2.07,18.26S53.48,297.53,60,298c27.7,2.09,26.27-6.93,26.27-6.93s-.16-57.88-1.08-64.57-8.79-19.59-12.31-22.79A60.86,60.86,0,0,0,64.6,197.68Z" style="fill:#fff;stroke:#263238;stroke-miterlimit:10"></path><path d="M77.51,213.41l6.19,11.07s2.6-2.93,1.62-5.21S77.51,213.41,77.51,213.41Z" style="fill:#3B82F6;stroke:#263238;stroke-linecap:round;stroke-linejoin:round"></path><polygon points="83.7 224.48 81.32 274.99 86.47 285.78 89.85 272.58 85 223.5 83.7 224.48" style="fill:#3B82F6;stroke:#263238;stroke-linecap:round;stroke-linejoin:round"></polygon><polygon points="61.81 193.26 82.36 211.23 81.72 217.38 59.53 201.08 61.81 193.26" style="fill:#fff;stroke:#263238;stroke-miterlimit:10"></polygon><path d="M58.57,261.57l25.36,43.16s3.81,9.65,4.74,9.91,6.47.92,6.47.92l2.8,1.1s1.87.83,2.12-.41-1.59-10.63-2.52-10.89-7.3-3-7.3-3L72.5,256Z" style="fill:#fff;stroke:#263238;stroke-miterlimit:10"></path><path d="M60.41,212.86s-7.13,4.61-7.37,12.58a45.87,45.87,0,0,0,2.27,16.1c.7,1.81-1.6,5,.35,7.63S59.53,260,59.53,260L72,257.29s-2.41-5.7-1-7.29,3.23-2.91,3.06-6.57a29.06,29.06,0,0,1,.81-8.91C75.41,233,75.67,212.15,60.41,212.86Z" style="fill:#fff;stroke:#263238;stroke-miterlimit:10"></path><path d="M56.31,256.49l2.42,6L73.86,259l-1.57-7.58S59.23,253.6,56.31,256.49Z" style="fill:#fff;stroke:#263238;stroke-miterlimit:10"></path></g><g id="freepik--profile-3--inject-112"><rect x="290.77" y="207.89" width="124.32" height="138.94" style="fill:#263238;stroke:#263238;stroke-linecap:round;stroke-linejoin:round"></rect><rect x="285.78" y="201.31" width="126.28" height="142.06" style="fill:#fff;stroke:#263238;stroke-linecap:round;stroke-linejoin:round"></rect><rect x="314.18" y="201.31" width="97.88" height="142.06" style="fill:#fff;stroke:#263238;stroke-linecap:round;stroke-linejoin:round"></rect><rect x="285.78" y="201.31" width="126.28" height="9.57" style="fill:#263238;stroke:#263238;stroke-miterlimit:10"></rect><rect x="319.63" y="215.72" width="24.82" height="30.27" style="fill:#3B82F6;stroke:#263238;stroke-miterlimit:10"></rect><path d="M324.57,224.84s.55,8.25-.55,8.8a3.34,3.34,0,0,1-2,.36,6.87,6.87,0,0,0,3.66,3.3c2.57.92,4.58-1.46,4.58-1.46l-2.75-11.37Z" style="fill:#263238;stroke:#263238;stroke-linecap:round;stroke-linejoin:round"></path><polygon points="319.63 245.99 323.34 238.1 334.19 236.46 341.77 240.35 344.45 245.99 319.63 245.99" style="fill:#fff;stroke:#263238;stroke-linecap:round;stroke-linejoin:round"></polygon><polygon points="325.38 238.06 326.98 243.75 335.5 237.89 332.45 235.47 325.38 238.06" style="fill:#fff;stroke:#263238;stroke-linecap:round;stroke-linejoin:round"></polygon><polygon points="334.81 232.78 334.19 236.46 327.64 241.17 326.82 236.67 334.81 232.78" style="fill:#fff;stroke:#263238;stroke-linecap:round;stroke-linejoin:round"></polygon><path d="M324.73,227s-.38,8.54,2.4,10.05,8.5-3.6,9.14-4.24,4.06-1.51,4.06-4.31-2.13-2.14-2.13-2.14,1.28-3.66.64-5.17-9.51-2-12.29-.31S324.73,227,324.73,227Z" style="fill:#fff;stroke:#263238;stroke-linecap:round;stroke-linejoin:round"></path><path d="M333.37,224.84a2.42,2.42,0,0,0,0,3.3,7.82,7.82,0,0,1,1.28,5.68c-.18,1.28-2.2,1.65-2.2,1.65s.55,1.1,2.93,1.83,6.17.28,7.45-3.38-1.77-11.28-2.86-13.29-7.52-3.67-11.73-2.75-5.87,3.48-5.5,5.13,1.46,2.56,4.21,2.56A40.36,40.36,0,0,0,333.37,224.84Z" style="fill:#263238;stroke:#263238;stroke-linecap:round;stroke-linejoin:round"></path><path d="M325.71,227.06a1.75,1.75,0,0,1,1.84.31" style="fill:none;stroke:#263238;stroke-linecap:round;stroke-linejoin:round"></path><polyline points="327.64 228.89 327.05 231.77 328.89 231.57" style="fill:none;stroke:#263238;stroke-linecap:round;stroke-linejoin:round"></polyline><path d="M330.77,229.23c0,.42-.2.76-.45.76s-.44-.34-.44-.76.2-.76.44-.76S330.77,228.81,330.77,229.23Z" style="fill:#263238"></path><path d="M326.94,228.87c0,.42-.19.76-.44.76s-.44-.34-.44-.76.19-.75.44-.75S326.94,228.46,326.94,228.87Z" style="fill:#263238"></path><path d="M329.43,227.41a3.56,3.56,0,0,1,2.4.44" style="fill:none;stroke:#263238;stroke-linecap:round;stroke-linejoin:round"></path><path d="M327,234.08a4.74,4.74,0,0,0,3.74-.72" style="fill:none;stroke:#263238;stroke-linecap:round;stroke-linejoin:round"></path><rect x="350.5" y="215.51" width="56.04" height="11.05" style="fill:#fff;stroke:#263238;stroke-linecap:round;stroke-linejoin:round"></rect><polygon points="360.02 216.63 360.91 219.38 363.8 219.38 361.46 221.07 362.36 223.81 360.02 222.12 357.69 223.81 358.58 221.07 356.25 219.38 359.13 219.38 360.02 216.63" style="fill:#3B82F6"></polygon><polygon points="370.06 216.63 370.95 219.38 373.84 219.38 371.5 221.07 372.39 223.81 370.06 222.12 367.73 223.81 368.62 221.07 366.29 219.38 369.17 219.38 370.06 216.63" style="fill:#3B82F6"></polygon><polygon points="380.1 216.63 381 219.38 383.88 219.38 381.55 221.07 382.44 223.81 380.1 222.12 377.77 223.81 378.66 221.07 376.33 219.38 379.21 219.38 380.1 216.63" style="fill:#3B82F6"></polygon><polygon points="390.14 216.63 391.04 219.38 393.92 219.38 391.59 221.07 392.48 223.81 390.14 222.12 387.81 223.81 388.7 221.07 386.37 219.38 389.25 219.38 390.14 216.63" style="fill:#dbdbdb"></polygon><polygon points="400.19 216.63 401.08 219.38 403.96 219.38 401.63 221.07 402.52 223.81 400.19 222.12 397.85 223.81 398.74 221.07 396.41 219.38 399.3 219.38 400.19 216.63" style="fill:#dbdbdb"></polygon><rect x="350.5" y="232.09" width="56.04" height="61.56" style="fill:#fff;stroke:#263238;stroke-linecap:round;stroke-linejoin:round"></rect><rect x="350.5" y="298.38" width="56.04" height="41.04" style="fill:#fff;stroke:#263238;stroke-linecap:round;stroke-linejoin:round"></rect><line x1="320.62" y1="253.66" x2="342.41" y2="253.66" style="fill:none;stroke:#263238;stroke-linecap:round;stroke-linejoin:round"></line><line x1="320.62" y1="278.91" x2="342.41" y2="278.91" style="fill:none;stroke:#263238;stroke-linecap:round;stroke-linejoin:round"></line><line x1="288.16" y1="252.58" x2="309.94" y2="252.58" style="fill:none;stroke:#263238;stroke-linecap:round;stroke-linejoin:round"></line><line x1="288.16" y1="227.69" x2="309.94" y2="227.69" style="fill:none;stroke:#263238;stroke-linecap:round;stroke-linejoin:round"></line><line x1="288.16" y1="219.04" x2="309.94" y2="219.04" style="fill:none;stroke:#263238;stroke-linecap:round;stroke-linejoin:round"></line><line x1="320.62" y1="286.28" x2="342.41" y2="286.28" style="fill:none;stroke:#263238;stroke-linecap:round;stroke-linejoin:round"></line><line x1="320.62" y1="293.65" x2="342.41" y2="293.65" style="fill:none;stroke:#263238;stroke-linecap:round;stroke-linejoin:round"></line><line x1="320.62" y1="301.01" x2="342.41" y2="301.01" style="fill:none;stroke:#263238;stroke-linecap:round;stroke-linejoin:round"></line><line x1="320.62" y1="308.38" x2="342.41" y2="308.38" style="fill:none;stroke:#263238;stroke-linecap:round;stroke-linejoin:round"></line><line x1="320.62" y1="315.75" x2="342.41" y2="315.75" style="fill:none;stroke:#263238;stroke-linecap:round;stroke-linejoin:round"></line><line x1="320.62" y1="323.11" x2="342.41" y2="323.11" style="fill:none;stroke:#263238;stroke-linecap:round;stroke-linejoin:round"></line><line x1="320.62" y1="330.48" x2="342.41" y2="330.48" style="fill:none;stroke:#263238;stroke-linecap:round;stroke-linejoin:round"></line><line x1="320.62" y1="256.63" x2="335.04" y2="256.63" style="fill:none;stroke:#263238;stroke-linecap:round;stroke-linejoin:round"></line><rect x="314.72" y="264.18" width="35.78" height="9.47" style="fill:#3B82F6;stroke:#263238;stroke-linecap:round;stroke-linejoin:round"></rect><rect x="286.31" y="234.72" width="28.05" height="9.47" style="fill:#3B82F6;stroke:#263238;stroke-linecap:round;stroke-linejoin:round"></rect><line x1="354.18" y1="237.35" x2="381.54" y2="237.35" style="fill:none;stroke:#263238;stroke-linecap:round;stroke-linejoin:round"></line><line x1="354.18" y1="306.8" x2="381.54" y2="306.8" style="fill:none;stroke:#263238;stroke-linecap:round;stroke-linejoin:round"></line><line x1="354.18" y1="247.87" x2="369.44" y2="247.87" style="fill:none;stroke:#263238;stroke-linecap:round;stroke-linejoin:round"></line><line x1="354.18" y1="255.24" x2="369.44" y2="255.24" style="fill:none;stroke:#263238;stroke-linecap:round;stroke-linejoin:round"></line><line x1="354.18" y1="262.6" x2="369.44" y2="262.6" style="fill:none;stroke:#263238;stroke-linecap:round;stroke-linejoin:round"></line><line x1="354.18" y1="269.97" x2="369.44" y2="269.97" style="fill:none;stroke:#263238;stroke-linecap:round;stroke-linejoin:round"></line><line x1="354.18" y1="277.34" x2="369.44" y2="277.34" style="fill:none;stroke:#263238;stroke-linecap:round;stroke-linejoin:round"></line><line x1="354.18" y1="284.7" x2="369.44" y2="284.7" style="fill:none;stroke:#263238;stroke-linecap:round;stroke-linejoin:round"></line><line x1="376.28" y1="247.87" x2="391.54" y2="247.87" style="fill:none;stroke:#263238;stroke-linecap:round;stroke-linejoin:round"></line><line x1="376.28" y1="255.24" x2="391.54" y2="255.24" style="fill:none;stroke:#263238;stroke-linecap:round;stroke-linejoin:round"></line><line x1="376.28" y1="262.6" x2="391.54" y2="262.6" style="fill:none;stroke:#263238;stroke-linecap:round;stroke-linejoin:round"></line><line x1="376.28" y1="269.97" x2="391.54" y2="269.97" style="fill:none;stroke:#263238;stroke-linecap:round;stroke-linejoin:round"></line><line x1="376.28" y1="277.34" x2="391.54" y2="277.34" style="fill:none;stroke:#263238;stroke-linecap:round;stroke-linejoin:round"></line><line x1="376.28" y1="284.7" x2="391.54" y2="284.7" style="fill:none;stroke:#263238;stroke-linecap:round;stroke-linejoin:round"></line><line x1="354.18" y1="240.5" x2="393.12" y2="240.5" style="fill:none;stroke:#263238;stroke-linecap:round;stroke-linejoin:round"></line><rect x="350.5" y="312.06" width="55.77" height="3.16" style="fill:#263238;stroke:#263238;stroke-linecap:round;stroke-linejoin:round"></rect><line x1="305.77" y1="203.67" x2="305.77" y2="208.41" style="fill:none;stroke:#fff;stroke-linecap:round;stroke-linejoin:round"></line><line x1="335.41" y1="203.67" x2="335.41" y2="208.41" style="fill:none;stroke:#fff;stroke-linecap:round;stroke-linejoin:round"></line><line x1="365.06" y1="203.67" x2="365.06" y2="208.41" style="fill:none;stroke:#fff;stroke-linecap:round;stroke-linejoin:round"></line><line x1="394.7" y1="203.67" x2="394.7" y2="208.41" style="fill:none;stroke:#fff;stroke-linecap:round;stroke-linejoin:round"></line></g><g id="freepik--profile-1--inject-112"><rect x="139.49" y="165.17" width="124.32" height="138.94" style="fill:#263238;stroke:#263238;stroke-linecap:round;stroke-linejoin:round"></rect><rect x="134.44" y="158.15" width="126.28" height="142.06" style="fill:#fff;stroke:#263238;stroke-linecap:round;stroke-linejoin:round"></rect><rect x="162.84" y="158.15" width="97.88" height="142.06" style="fill:#fff;stroke:#263238;stroke-linecap:round;stroke-linejoin:round"></rect><rect x="134.44" y="158.15" width="126.28" height="9.57" style="fill:#263238;stroke:#263238;stroke-miterlimit:10"></rect><rect x="168.29" y="172.57" width="24.82" height="30.27" style="fill:#3B82F6;stroke:#263238;stroke-miterlimit:10"></rect><polygon points="168.29 202.84 172 194.95 182.85 193.31 190.43 197.2 193.11 202.84 168.29 202.84" style="fill:#fff;stroke:#263238;stroke-linecap:round;stroke-linejoin:round"></polygon><polygon points="174.04 194.91 175.64 200.59 184.16 194.73 181.11 192.32 174.04 194.91" style="fill:#fff;stroke:#263238;stroke-linecap:round;stroke-linejoin:round"></polygon><polygon points="183.47 189.63 182.85 193.31 176.3 198.02 175.48 193.52 183.47 189.63" style="fill:#a1a1a1;stroke:#263238;stroke-linecap:round;stroke-linejoin:round"></polygon><path d="M173.42,183.07a5.21,5.21,0,0,1-.87-4.46c.75-2.48,4.22-4.47,8.93-4.47a7.56,7.56,0,0,1,7.81,6.08c.74,3.1-2.23,7.44-3.1,7.68s-1.24.75-2,.25-1-7.19-2.73-7.56-6.32.25-6.32.25Z" style="fill:#263238"></path><path d="M173.39,183.83s-.38,8.54,2.4,10,8.5-3.59,9.14-4.24,2.62-.54,2.62-3.34-2.85-1.49-2.85-1.49-1.89-.63-2.11-1.48,1.2-2.08.87-2.85c-.64-1.51-4.9-3.71-7.68-2S173.39,183.83,173.39,183.83Z" style="fill:#a1a1a1;stroke:#263238;stroke-linecap:round;stroke-linejoin:round"></path><path d="M174.37,183.91a1.76,1.76,0,0,1,1.84.3" style="fill:none;stroke:#263238;stroke-linecap:round;stroke-linejoin:round"></path><polyline points="176.3 185.74 175.71 188.62 177.56 188.41" style="fill:none;stroke:#263238;stroke-linecap:round;stroke-linejoin:round"></polyline><path d="M179.43,186.08c0,.42-.2.75-.45.75s-.44-.33-.44-.75.2-.76.44-.76S179.43,185.66,179.43,186.08Z" style="fill:#263238"></path><path d="M175.6,185.72c0,.42-.19.76-.44.76s-.44-.34-.44-.76.19-.75.44-.75S175.6,185.3,175.6,185.72Z" style="fill:#263238"></path><path d="M178.09,184.26a3.56,3.56,0,0,1,2.4.44" style="fill:none;stroke:#263238;stroke-linecap:round;stroke-linejoin:round"></path><path d="M175.69,190.92s2.32.54,3.74-.71" style="fill:none;stroke:#263238;stroke-linecap:round;stroke-linejoin:round"></path><rect x="199.16" y="172.36" width="56.04" height="11.05" style="fill:#fff;stroke:#263238;stroke-linecap:round;stroke-linejoin:round"></rect><polygon points="205.73 174.04 206.62 176.78 209.5 176.78 207.17 178.48 208.06 181.22 205.73 179.52 203.4 181.22 204.29 178.48 201.96 176.78 204.84 176.78 205.73 174.04" style="fill:#3B82F6"></polygon><polygon points="215.77 174.04 216.66 176.78 219.54 176.78 217.21 178.48 218.1 181.22 215.77 179.52 213.44 181.22 214.33 178.48 212 176.78 214.88 176.78 215.77 174.04" style="fill:#919191"></polygon><polygon points="225.81 174.04 226.7 176.78 229.58 176.78 227.25 178.48 228.14 181.22 225.81 179.52 223.48 181.22 224.37 178.48 222.04 176.78 224.92 176.78 225.81 174.04" style="fill:#919191"></polygon><polygon points="235.85 174.04 236.74 176.78 239.62 176.78 237.29 178.48 238.18 181.22 235.85 179.52 233.52 181.22 234.41 178.48 232.08 176.78 234.96 176.78 235.85 174.04" style="fill:#919191"></polygon><polygon points="245.89 174.04 246.78 176.78 249.66 176.78 247.33 178.48 248.22 181.22 245.89 179.52 243.56 181.22 244.45 178.48 242.12 176.78 245 176.78 245.89 174.04" style="fill:#919191"></polygon><rect x="199.16" y="188.93" width="56.04" height="61.56" style="fill:#fff;stroke:#263238;stroke-linecap:round;stroke-linejoin:round"></rect><rect x="199.16" y="255.23" width="56.04" height="41.04" style="fill:#fff;stroke:#263238;stroke-linecap:round;stroke-linejoin:round"></rect><line x1="169.28" y1="210.51" x2="191.07" y2="210.51" style="fill:none;stroke:#263238;stroke-linecap:round;stroke-linejoin:round"></line><line x1="169.28" y1="235.76" x2="191.07" y2="235.76" style="fill:none;stroke:#263238;stroke-linecap:round;stroke-linejoin:round"></line><line x1="136.82" y1="209.43" x2="158.6" y2="209.43" style="fill:none;stroke:#263238;stroke-linecap:round;stroke-linejoin:round"></line><line x1="136.82" y1="184.54" x2="158.6" y2="184.54" style="fill:none;stroke:#263238;stroke-linecap:round;stroke-linejoin:round"></line><line x1="136.82" y1="175.88" x2="158.6" y2="175.88" style="fill:none;stroke:#263238;stroke-linecap:round;stroke-linejoin:round"></line><line x1="169.28" y1="243.13" x2="191.07" y2="243.13" style="fill:none;stroke:#263238;stroke-linecap:round;stroke-linejoin:round"></line><line x1="169.28" y1="250.49" x2="191.07" y2="250.49" style="fill:none;stroke:#263238;stroke-linecap:round;stroke-linejoin:round"></line><line x1="169.28" y1="257.86" x2="191.07" y2="257.86" style="fill:none;stroke:#263238;stroke-linecap:round;stroke-linejoin:round"></line><line x1="169.28" y1="265.23" x2="191.07" y2="265.23" style="fill:none;stroke:#263238;stroke-linecap:round;stroke-linejoin:round"></line><line x1="169.28" y1="272.59" x2="191.07" y2="272.59" style="fill:none;stroke:#263238;stroke-linecap:round;stroke-linejoin:round"></line><line x1="169.28" y1="279.96" x2="191.07" y2="279.96" style="fill:none;stroke:#263238;stroke-linecap:round;stroke-linejoin:round"></line><line x1="169.28" y1="287.33" x2="191.07" y2="287.33" style="fill:none;stroke:#263238;stroke-linecap:round;stroke-linejoin:round"></line><line x1="169.28" y1="213.48" x2="183.7" y2="213.48" style="fill:none;stroke:#263238;stroke-linecap:round;stroke-linejoin:round"></line><rect x="163.38" y="221.03" width="35.78" height="9.47" style="fill:#3B82F6;stroke:#263238;stroke-linecap:round;stroke-linejoin:round"></rect><rect x="134.97" y="191.56" width="28.05" height="9.47" style="fill:#3B82F6;stroke:#263238;stroke-linecap:round;stroke-linejoin:round"></rect><line x1="202.84" y1="194.19" x2="230.2" y2="194.19" style="fill:none;stroke:#263238;stroke-linecap:round;stroke-linejoin:round"></line><line x1="202.84" y1="263.65" x2="230.2" y2="263.65" style="fill:none;stroke:#263238;stroke-linecap:round;stroke-linejoin:round"></line><line x1="202.84" y1="204.72" x2="218.1" y2="204.72" style="fill:none;stroke:#263238;stroke-linecap:round;stroke-linejoin:round"></line><line x1="202.84" y1="212.08" x2="218.1" y2="212.08" style="fill:none;stroke:#263238;stroke-linecap:round;stroke-linejoin:round"></line><line x1="202.84" y1="219.45" x2="218.1" y2="219.45" style="fill:none;stroke:#263238;stroke-linecap:round;stroke-linejoin:round"></line><line x1="202.84" y1="226.82" x2="218.1" y2="226.82" style="fill:none;stroke:#263238;stroke-linecap:round;stroke-linejoin:round"></line><line x1="202.84" y1="234.18" x2="218.1" y2="234.18" style="fill:none;stroke:#263238;stroke-linecap:round;stroke-linejoin:round"></line><line x1="202.84" y1="241.55" x2="218.1" y2="241.55" style="fill:none;stroke:#263238;stroke-linecap:round;stroke-linejoin:round"></line><line x1="224.94" y1="204.72" x2="240.2" y2="204.72" style="fill:none;stroke:#263238;stroke-linecap:round;stroke-linejoin:round"></line><line x1="224.94" y1="212.08" x2="240.2" y2="212.08" style="fill:none;stroke:#263238;stroke-linecap:round;stroke-linejoin:round"></line><line x1="224.94" y1="219.45" x2="240.2" y2="219.45" style="fill:none;stroke:#263238;stroke-linecap:round;stroke-linejoin:round"></line><line x1="224.94" y1="226.82" x2="240.2" y2="226.82" style="fill:none;stroke:#263238;stroke-linecap:round;stroke-linejoin:round"></line><line x1="224.94" y1="234.18" x2="240.2" y2="234.18" style="fill:none;stroke:#263238;stroke-linecap:round;stroke-linejoin:round"></line><line x1="224.94" y1="241.55" x2="240.2" y2="241.55" style="fill:none;stroke:#263238;stroke-linecap:round;stroke-linejoin:round"></line><line x1="202.84" y1="197.35" x2="241.78" y2="197.35" style="fill:none;stroke:#263238;stroke-linecap:round;stroke-linejoin:round"></line><rect x="199.16" y="268.91" width="55.77" height="3.16" style="fill:#263238;stroke:#263238;stroke-linecap:round;stroke-linejoin:round"></rect><line x1="154.43" y1="160.52" x2="154.43" y2="165.26" style="fill:none;stroke:#fff;stroke-linecap:round;stroke-linejoin:round"></line><line x1="184.07" y1="160.52" x2="184.07" y2="165.26" style="fill:none;stroke:#fff;stroke-linecap:round;stroke-linejoin:round"></line><line x1="213.72" y1="160.52" x2="213.72" y2="165.26" style="fill:none;stroke:#fff;stroke-linecap:round;stroke-linejoin:round"></line><line x1="243.36" y1="160.52" x2="243.36" y2="165.26" style="fill:none;stroke:#fff;stroke-linecap:round;stroke-linejoin:round"></line></g><g id="freepik--profile-2--inject-112"><rect x="223.33" y="114.77" width="122.53" height="113.71" style="fill:#263238;stroke:#263238;stroke-linecap:round;stroke-linejoin:round"></rect><rect x="217.09" y="84.35" width="126.28" height="142.06" style="fill:#fff;stroke:#263238;stroke-linecap:round;stroke-linejoin:round"></rect><rect x="245.49" y="84.35" width="97.88" height="142.06" style="fill:#fff;stroke:#263238;stroke-linecap:round;stroke-linejoin:round"></rect><rect x="217.09" y="84.35" width="126.28" height="9.57" style="fill:#263238;stroke:#263238;stroke-miterlimit:10"></rect><rect x="250.94" y="98.76" width="24.82" height="30.27" style="fill:#3B82F6;stroke:#263238;stroke-miterlimit:10"></rect><polygon points="250.94 129.03 255.07 122.03 267.15 120.21 275.58 124.54 275.76 129.03 250.94 129.03" style="fill:#263238;stroke:#263238;stroke-linecap:round;stroke-linejoin:round"></polygon><polygon points="267.83 116.11 267.15 120.21 259.86 125.45 258.95 120.44 267.83 116.11" style="fill:#fff;stroke:#263238;stroke-linecap:round;stroke-linejoin:round"></polygon><path d="M257.35,109.27s-1.82,10.48,1.14,12.08,10.48-5.24,11.17-5.92,4.33-1.6,4.33-4.56-2.28-2.28-2.28-2.28,1.36-3.87.68-5.47-13-2.73-15.95-.91S257.35,109.27,257.35,109.27Z" style="fill:#fff;stroke:#263238;stroke-linecap:round;stroke-linejoin:round"></path><path d="M272.39,103.12c-.68-1.59-13-2.73-15.95-.91s.91,7.06.91,7.06,1.37.92,5,0,6.15-1.82,6.15-1.82-3,3.42-1.6,3.65l1.37.22.46,2.51,3-5.24S273.07,104.72,272.39,103.12Z" style="fill:#263238;stroke:#263238;stroke-linecap:round;stroke-linejoin:round"></path><polyline points="259.86 111.78 258.85 116.58 260.9 116.36" style="fill:none;stroke:#263238;stroke-linecap:round;stroke-linejoin:round"></polyline><path d="M263.34,112.16c0,.46-.22.84-.5.84s-.49-.38-.49-.84.22-.84.49-.84S263.34,111.7,263.34,112.16Z" style="fill:#263238"></path><path d="M259.08,111.76c0,.47-.22.85-.49.85s-.49-.38-.49-.85.22-.84.49-.84S259.08,111.3,259.08,111.76Z" style="fill:#263238"></path><path d="M261.86,110.13a4,4,0,0,1,2.67.5" style="fill:none;stroke:#263238;stroke-linecap:round;stroke-linejoin:round"></path><path d="M259.18,117.55s2.58.6,4.16-.79" style="fill:none;stroke:#263238;stroke-linecap:round;stroke-linejoin:round"></path><rect x="281.81" y="98.55" width="56.04" height="11.05" style="fill:#fff;stroke:#263238;stroke-linecap:round;stroke-linejoin:round"></rect><polygon points="289.8 100.16 290.69 102.9 293.57 102.9 291.24 104.59 292.13 107.33 289.8 105.64 287.47 107.33 288.36 104.59 286.03 102.9 288.91 102.9 289.8 100.16" style="fill:#3B82F6"></polygon><polygon points="299.84 100.16 300.73 102.9 303.61 102.9 301.28 104.59 302.17 107.33 299.84 105.64 297.51 107.33 298.4 104.59 296.07 102.9 298.95 102.9 299.84 100.16" style="fill:#3B82F6"></polygon><polygon points="309.88 100.16 310.77 102.9 313.65 102.9 311.32 104.59 312.21 107.33 309.88 105.64 307.55 107.33 308.44 104.59 306.11 102.9 308.99 102.9 309.88 100.16" style="fill:#3B82F6"></polygon><polygon points="319.92 100.16 320.81 102.9 323.69 102.9 321.36 104.59 322.25 107.33 319.92 105.64 317.59 107.33 318.48 104.59 316.15 102.9 319.03 102.9 319.92 100.16" style="fill:#3B82F6"></polygon><polygon points="329.96 100.16 330.85 102.9 333.74 102.9 331.4 104.59 332.3 107.33 329.96 105.64 327.63 107.33 328.52 104.59 326.19 102.9 329.07 102.9 329.96 100.16" style="fill:#dbdbdb"></polygon><rect x="281.81" y="115.13" width="56.04" height="61.56" style="fill:#fff;stroke:#263238;stroke-linecap:round;stroke-linejoin:round"></rect><rect x="281.81" y="181.43" width="56.04" height="41.04" style="fill:#fff;stroke:#263238;stroke-linecap:round;stroke-linejoin:round"></rect><line x1="251.94" y1="136.7" x2="273.72" y2="136.7" style="fill:none;stroke:#263238;stroke-linecap:round;stroke-linejoin:round"></line><line x1="251.94" y1="161.96" x2="273.72" y2="161.96" style="fill:none;stroke:#263238;stroke-linecap:round;stroke-linejoin:round"></line><line x1="219.47" y1="135.62" x2="241.26" y2="135.62" style="fill:none;stroke:#263238;stroke-linecap:round;stroke-linejoin:round"></line><line x1="219.47" y1="110.74" x2="241.26" y2="110.74" style="fill:none;stroke:#263238;stroke-linecap:round;stroke-linejoin:round"></line><line x1="219.47" y1="102.08" x2="241.26" y2="102.08" style="fill:none;stroke:#263238;stroke-linecap:round;stroke-linejoin:round"></line><line x1="251.94" y1="169.32" x2="273.72" y2="169.32" style="fill:none;stroke:#263238;stroke-linecap:round;stroke-linejoin:round"></line><line x1="251.94" y1="176.69" x2="273.72" y2="176.69" style="fill:none;stroke:#263238;stroke-linecap:round;stroke-linejoin:round"></line><line x1="251.94" y1="184.06" x2="273.72" y2="184.06" style="fill:none;stroke:#263238;stroke-linecap:round;stroke-linejoin:round"></line><line x1="251.94" y1="191.42" x2="273.72" y2="191.42" style="fill:none;stroke:#263238;stroke-linecap:round;stroke-linejoin:round"></line><line x1="251.94" y1="198.79" x2="273.72" y2="198.79" style="fill:none;stroke:#263238;stroke-linecap:round;stroke-linejoin:round"></line><line x1="251.94" y1="206.15" x2="273.72" y2="206.15" style="fill:none;stroke:#263238;stroke-linecap:round;stroke-linejoin:round"></line><line x1="251.94" y1="213.52" x2="273.72" y2="213.52" style="fill:none;stroke:#263238;stroke-linecap:round;stroke-linejoin:round"></line><line x1="251.94" y1="139.67" x2="266.36" y2="139.67" style="fill:none;stroke:#263238;stroke-linecap:round;stroke-linejoin:round"></line><rect x="246.03" y="147.22" width="35.78" height="9.47" style="fill:#3B82F6;stroke:#263238;stroke-linecap:round;stroke-linejoin:round"></rect><rect x="217.62" y="117.76" width="28.05" height="9.47" style="fill:#3B82F6;stroke:#263238;stroke-linecap:round;stroke-linejoin:round"></rect><line x1="285.5" y1="120.39" x2="312.86" y2="120.39" style="fill:none;stroke:#263238;stroke-linecap:round;stroke-linejoin:round"></line><line x1="285.5" y1="189.84" x2="312.86" y2="189.84" style="fill:none;stroke:#263238;stroke-linecap:round;stroke-linejoin:round"></line><line x1="285.5" y1="130.91" x2="300.75" y2="130.91" style="fill:none;stroke:#263238;stroke-linecap:round;stroke-linejoin:round"></line><line x1="285.5" y1="138.28" x2="300.75" y2="138.28" style="fill:none;stroke:#263238;stroke-linecap:round;stroke-linejoin:round"></line><line x1="285.5" y1="145.65" x2="300.75" y2="145.65" style="fill:none;stroke:#263238;stroke-linecap:round;stroke-linejoin:round"></line><line x1="285.5" y1="153.01" x2="300.75" y2="153.01" style="fill:none;stroke:#263238;stroke-linecap:round;stroke-linejoin:round"></line><line x1="285.5" y1="160.38" x2="300.75" y2="160.38" style="fill:none;stroke:#263238;stroke-linecap:round;stroke-linejoin:round"></line><line x1="285.5" y1="167.74" x2="300.75" y2="167.74" style="fill:none;stroke:#263238;stroke-linecap:round;stroke-linejoin:round"></line><line x1="307.59" y1="130.91" x2="322.85" y2="130.91" style="fill:none;stroke:#263238;stroke-linecap:round;stroke-linejoin:round"></line><line x1="307.59" y1="138.28" x2="322.85" y2="138.28" style="fill:none;stroke:#263238;stroke-linecap:round;stroke-linejoin:round"></line><line x1="307.59" y1="145.65" x2="322.85" y2="145.65" style="fill:none;stroke:#263238;stroke-linecap:round;stroke-linejoin:round"></line><line x1="307.59" y1="153.01" x2="322.85" y2="153.01" style="fill:none;stroke:#263238;stroke-linecap:round;stroke-linejoin:round"></line><line x1="307.59" y1="160.38" x2="322.85" y2="160.38" style="fill:none;stroke:#263238;stroke-linecap:round;stroke-linejoin:round"></line><line x1="307.59" y1="167.74" x2="322.85" y2="167.74" style="fill:none;stroke:#263238;stroke-linecap:round;stroke-linejoin:round"></line><line x1="285.5" y1="123.55" x2="324.43" y2="123.55" style="fill:none;stroke:#263238;stroke-linecap:round;stroke-linejoin:round"></line><rect x="281.81" y="195.11" width="55.77" height="3.16" style="fill:#263238;stroke:#263238;stroke-linecap:round;stroke-linejoin:round"></rect><line x1="237.09" y1="86.72" x2="237.09" y2="91.45" style="fill:none;stroke:#fff;stroke-linecap:round;stroke-linejoin:round"></line><line x1="266.73" y1="86.72" x2="266.73" y2="91.45" style="fill:none;stroke:#fff;stroke-linecap:round;stroke-linejoin:round"></line><line x1="296.37" y1="86.72" x2="296.37" y2="91.45" style="fill:none;stroke:#fff;stroke-linecap:round;stroke-linejoin:round"></line><line x1="326.01" y1="86.72" x2="326.01" y2="91.45" style="fill:none;stroke:#fff;stroke-linecap:round;stroke-linejoin:round"></line></g></svg>